<svg width="24" height="24" viewBox="0 0 24 24" fill="none" xmlns="http://www.w3.org/2000/svg">
  <path d="M12 2C13.1 2 14 2.9 14 4C14 5.1 13.1 6 12 6C10.9 6 10 5.1 10 4C10 2.9 10.9 2 12 2ZM21 9V7L15 1H5C3.89 1 3 1.89 3 3V21C3 22.11 3.89 23 5 23H19C20.11 23 21 22.11 21 21V9M19 9H14V4L19 9Z" fill="currentColor"/>
  <rect x="8" y="12" width="8" height="6" rx="2" fill="currentColor" opacity="0.6"/>
  <circle cx="12" cy="8" r="2" fill="currentColor" opacity="0.8"/>
  <path d="M10 18H14V20H10V18Z" fill="currentColor" opacity="0.4"/>
</svg>
